<svg xmlns="http://www.w3.org/2000/svg" width="170.165" height="168.318" viewBox="0 0 170.165 168.318">
  <g id="undraw_nature_benefits_re_kk70" transform="translate(-68.049 0)">
    <path id="Pfad_57" data-name="Pfad 57" d="M828.055,199.068c0-18.117-14.687-61.108-32.8-61.108s-32.8,42.991-32.8,61.108a32.8,32.8,0,1,0,65.608,0Z" transform="translate(-589.841 -137.96)" fill="#ecb052"/>
    <path id="Pfad_58" data-name="Pfad 58" d="M883.331,372.691a.27.27,0,0,0,.27-.27V239.363a.27.27,0,0,0-.539,0V372.422A.27.27,0,0,0,883.331,372.691Z" transform="translate(-677.92 -211.814)" fill="#3f3d56"/>
    <path id="Pfad_59" data-name="Pfad 59" d="M883.331,284.428a.269.269,0,0,0,.191-.079l12.984-12.984a.27.27,0,0,0-.382-.381L883.14,283.968a.27.27,0,0,0,.191.46Z" transform="translate(-677.92 -235.044)" fill="#3f3d56"/>
    <path id="Pfad_60" data-name="Pfad 60" d="M824.464,344.042a.27.27,0,0,0,.191-.46l-21.744-21.744a.27.27,0,0,0-.382.381l21.744,21.744A.269.269,0,0,0,824.464,344.042Z" transform="translate(-619.054 -272.181)" fill="#3f3d56"/>
    <path id="Pfad_61" data-name="Pfad 61" d="M845.84,716.219c-.047.036-.1.069-.144.1H805.48c-.788-3.193-1.066-6.389.111-9.165,1.677-3.955,6.641-6.424,10.586-4.725a6.026,6.026,0,0,1,2.367,1.872,8.861,8.861,0,0,1,7.5-4.839c4,0,7.326,3.274,8.411,7.053,1.748-2.95,5.2-5.012,8.574-4.125C848.675,703.877,850.458,712.651,845.84,716.219Z" transform="translate(-620.768 -548.005)" fill="rgba(255,255,255,0.9)"/>
    <path id="Pfad_62" data-name="Pfad 62" d="M241.5,411.371c0-13.019-10.561-43.911-23.588-43.911s-23.588,30.893-23.588,43.911a23.588,23.588,0,1,0,47.177,0Z" transform="translate(-98.209 -305.554)" fill="#efeded"/>
    <path id="Pfad_63" data-name="Pfad 63" d="M281.248,521.789a.194.194,0,0,0,.194-.194v-81.27a.194.194,0,1,0-.388,0V521.6A.194.194,0,0,0,281.248,521.789Z" transform="translate(-161.544 -358.624)" fill="#3f3d56"/>
    <path id="Pfad_64" data-name="Pfad 64" d="M281.249,472.709a.193.193,0,0,0,.137-.057l9.336-9.33a.194.194,0,0,0-.274-.274l-9.336,9.33a.194.194,0,0,0,.137.331Z" transform="translate(-161.544 -375.317)" fill="#3f3d56"/>
    <path id="Pfad_65" data-name="Pfad 65" d="M238.92,515.546a.194.194,0,0,0,.137-.331l-15.635-15.625a.194.194,0,1,0-.274.274l15.635,15.625A.194.194,0,0,0,238.92,515.546Z" transform="translate(-119.216 -402.003)" fill="#3f3d56"/>
    <path id="Pfad_66" data-name="Pfad 66" d="M253.9,729.091c-.034.026-.069.049-.1.075H224.876a10.462,10.462,0,0,1,.08-6.585c1.206-2.842,4.775-4.616,7.612-3.4a4.333,4.333,0,0,1,1.7,1.346,6.372,6.372,0,0,1,5.394-3.477c2.876,0,5.268,2.353,6.048,5.068,1.257-2.12,3.739-3.6,6.166-2.964C255.935,720.223,257.217,726.527,253.9,729.091Z" transform="translate(-120.16 -560.849)" fill="rgba(255,255,255,0.9)"/>
    <path id="Pfad_67" data-name="Pfad 67" d="M375.095,760.5H477.866a.27.27,0,0,0,0-.539H375.095a.27.27,0,1,0,0,.539Z" transform="translate(-306.776 -592.181)" fill="#3f3d56"/>
  </g>
</svg>
